<?xml version="1.0" encoding="UTF-8"?>
<!DOCTYPE svg PUBLIC "-//W3C//DTD SVG 1.1//EN" "http://www.w3.org/Graphics/SVG/1.1/DTD/svg11.dtd">
<svg xmlns="http://www.w3.org/2000/svg" version="1.1" width="200px" height="200px" style="shape-rendering:geometricPrecision; text-rendering:geometricPrecision; image-rendering:optimizeQuality; fill-rule:evenodd; clip-rule:evenodd" xmlns:xlink="http://www.w3.org/1999/xlink">
<g><path style="opacity:1" fill="#fefefe" d="M -0.5,-0.5 C 166.167,-0.5 332.833,-0.5 499.5,-0.5C 499.5,166.167 499.5,332.833 499.5,499.5C 332.833,499.5 166.167,499.5 -0.5,499.5C -0.5,332.833 -0.5,166.167 -0.5,-0.5 Z"/></g>
<g><path style="opacity:1" fill="#060e3a" d="M 306.5,188.5 C 305.185,187.333 304.519,185.833 304.5,184C 305.96,178.77 305.793,173.604 304,168.5C 300.95,164.87 297.117,163.703 292.5,165C 288.271,166.115 284.271,167.781 280.5,170C 272.691,175.641 265.025,181.475 257.5,187.5C 256.692,187.192 256.025,186.692 255.5,186C 258.729,182.601 262.062,179.435 265.5,176.5C 274.008,168.842 283.675,163.009 294.5,159C 305.57,156.41 310.903,160.743 310.5,172C 310.473,177.94 309.139,183.44 306.5,188.5 Z"/></g>
<g><path style="opacity:1" fill="#040b38" d="M 264.5,175.5 C 263.688,176.993 262.355,177.66 260.5,177.5C 232.788,174.131 207.455,180.297 184.5,196C 174.619,203.876 167.953,213.876 164.5,226C 164.833,226.5 165.167,227 165.5,227.5C 180.406,224.448 188.739,230.448 190.5,245.5C 189.916,248.003 189.249,250.503 188.5,253C 189.961,255.298 191.628,257.465 193.5,259.5C 191.5,262.167 189.167,264.5 186.5,266.5C 184.465,264.628 182.298,262.961 180,261.5C 167.753,265.378 159.087,261.378 154,249.5C 152.713,243.982 153.713,238.982 157,234.5C 158.973,240.449 161.973,245.783 166,250.5C 167.337,251.765 168.837,252.265 170.5,252C 161.116,244.312 157.616,234.479 160,222.5C 167.474,204.359 180.308,191.526 198.5,184C 219.758,175.656 241.758,172.823 264.5,175.5 Z"/></g>
<g><path style="opacity:1" fill="#f9f9fa" d="M 306.5,188.5 C 306.5,188.833 306.5,189.167 306.5,189.5C 295.823,182.552 284.156,178.719 271.5,178C 286.749,181.625 300.749,187.959 313.5,197C 322.469,204.299 328.636,213.465 332,224.5C 333,225.5 334,226.5 335,227.5C 335.399,227.272 335.565,226.938 335.5,226.5C 336.434,227.568 336.768,228.901 336.5,230.5C 334.537,229.04 332.704,227.373 331,225.5C 326.833,229.667 322.667,233.833 318.5,238C 320.5,240 322.5,242 324.5,244C 326.298,243.994 327.965,243.661 329.5,243C 328.707,244.085 328.04,245.252 327.5,246.5C 328.524,247.852 329.524,249.185 330.5,250.5C 330.5,250.833 330.5,251.167 330.5,251.5C 321.609,243.777 313.609,235.277 306.5,226C 303.252,225.329 302.919,225.829 305.5,227.5C 304.352,229.149 303.019,230.649 301.5,232C 300.256,232.456 299.423,231.956 299,230.5C 298.833,231 298.667,231.5 298.5,232C 300.32,234.652 302.32,237.152 304.5,239.5C 302.85,245.938 301.85,252.605 301.5,259.5C 298.036,256.538 294.703,253.371 291.5,250C 296.917,248.08 299.917,244.247 300.5,238.5C 298.432,235.887 297.099,232.887 296.5,229.5C 295.3,228.469 293.966,227.635 292.5,227C 283.84,226.5 275.173,226.334 266.5,226.5C 266.5,230.833 266.5,235.167 266.5,239.5C 268.38,239.229 269.713,239.896 270.5,241.5C 270.167,241.5 269.833,241.5 269.5,241.5C 268.603,240.402 267.77,240.402 267,241.5C 266.667,243.167 266.333,244.833 266,246.5C 263.418,241.667 260.585,237 257.5,232.5C 255.384,234.4 254.051,236.733 253.5,239.5C 252.835,242.817 252.501,246.317 252.5,250C 252.512,253.902 253.179,257.402 254.5,260.5C 258.131,261.412 261.797,261.579 265.5,261C 266.883,259.729 267.883,258.229 268.5,256.5C 269.167,256.5 269.5,256.833 269.5,257.5C 268.763,259.305 267.763,260.971 266.5,262.5C 269.768,263.487 273.102,263.82 276.5,263.5C 276.334,258.821 276.501,254.155 277,249.5C 281.349,253.682 285.515,258.015 289.5,262.5C 297.472,263.498 305.472,263.831 313.5,263.5C 313.786,257.741 313.452,252.075 312.5,246.5C 312.833,246.5 313.167,246.5 313.5,246.5C 317.892,250.897 322.558,254.897 327.5,258.5C 327.068,259.71 326.401,260.71 325.5,261.5C 324.969,259.456 323.802,257.789 322,256.5C 313.784,270.383 302.617,281.217 288.5,289C 265.366,298.276 252.032,290.776 248.5,266.5C 248.536,264.059 249.369,262.059 251,260.5C 251.333,252.833 251.667,245.167 252,237.5C 253.626,235.083 255.126,232.583 256.5,230C 253.706,223.909 250.206,218.409 246,213.5C 241.993,218.371 238.493,223.705 235.5,229.5C 237.2,232.039 238.7,234.705 240,237.5C 240.333,245.167 240.667,252.833 241,260.5C 242,261.167 243,261.833 244,262.5C 244.548,269.744 246.048,276.744 248.5,283.5C 247.833,283.833 247.167,284.167 246.5,284.5C 246.728,282.645 246.061,281.812 244.5,282C 234.637,293.541 223.303,303.208 210.5,311C 191.038,320.538 183.538,314.705 188,293.5C 191.994,279.853 197.827,267.187 205.5,255.5C 204.986,257.366 204.32,259.2 203.5,261C 204.609,262.861 206.275,263.695 208.5,263.5C 213.797,263.349 218.13,261.349 221.5,257.5C 222.167,257.167 222.833,256.833 223.5,256.5C 224.117,258.229 225.117,259.729 226.5,261C 230.805,260.923 235.138,260.756 239.5,260.5C 239.666,253.492 239.5,246.492 239,239.5C 237.999,236.827 236.499,234.493 234.5,232.5C 231.415,237 228.582,241.667 226,246.5C 225.506,244.866 225.34,243.199 225.5,241.5C 225.5,241.167 225.5,240.833 225.5,240.5C 226.65,235.684 226.816,230.684 226,225.5C 225.617,226.056 225.117,226.389 224.5,226.5C 229.838,217.981 236.172,210.148 243.5,203C 253.906,205.259 258.74,201.092 258,190.5C 252.634,184.273 246.967,183.939 241,189.5C 238.981,192.918 239.147,196.251 241.5,199.5C 228.007,215.978 215.34,232.978 203.5,250.5C 202.563,242.555 202.23,234.555 202.5,226.5C 199.167,226.5 195.833,226.5 192.5,226.5C 192.5,233.833 192.5,241.167 192.5,248.5C 191.833,247.5 191.167,246.5 190.5,245.5C 188.739,230.448 180.406,224.448 165.5,227.5C 165.167,227 164.833,226.5 164.5,226C 167.953,213.876 174.619,203.876 184.5,196C 207.455,180.297 232.788,174.131 260.5,177.5C 262.355,177.66 263.688,176.993 264.5,175.5C 265.167,175.5 265.5,175.833 265.5,176.5C 262.062,179.435 258.729,182.601 255.5,186C 256.025,186.692 256.692,187.192 257.5,187.5C 265.025,181.475 272.691,175.641 280.5,170C 284.271,167.781 288.271,166.115 292.5,165C 297.117,163.703 300.95,164.87 304,168.5C 305.793,173.604 305.96,178.77 304.5,184C 304.519,185.833 305.185,187.333 306.5,188.5 Z"/></g>
<g><path style="opacity:1" fill="#101440" d="M 306.5,189.5 C 321.773,197.439 331.44,209.773 335.5,226.5C 335.565,226.938 335.399,227.272 335,227.5C 334,226.5 333,225.5 332,224.5C 328.636,213.465 322.469,204.299 313.5,197C 300.749,187.959 286.749,181.625 271.5,178C 284.156,178.719 295.823,182.552 306.5,189.5 Z"/></g>
<g><path style="opacity:1" fill="#09103c" d="M 224.5,226.5 C 223.094,226.973 222.427,227.973 222.5,229.5C 220.738,230.262 219.738,231.596 219.5,233.5C 218.094,233.973 217.427,234.973 217.5,236.5C 215.549,237.716 214.049,239.382 213,241.5C 210.554,245.394 208.388,249.394 206.5,253.5C 206.672,254.492 206.338,255.158 205.5,255.5C 197.827,267.187 191.994,279.853 188,293.5C 183.538,314.705 191.038,320.538 210.5,311C 223.303,303.208 234.637,293.541 244.5,282C 246.061,281.812 246.728,282.645 246.5,284.5C 243.272,287.306 240.272,290.306 237.5,293.5C 226.204,305.629 212.871,314.796 197.5,321C 193.833,321.667 190.167,321.667 186.5,321C 184.383,319.269 182.883,317.102 182,314.5C 181.261,308.442 181.594,302.442 183,296.5C 187.427,282.987 192.927,269.987 199.5,257.5C 201.588,255.664 202.921,253.331 203.5,250.5C 215.34,232.978 228.007,215.978 241.5,199.5C 239.147,196.251 238.981,192.918 241,189.5C 246.967,183.939 252.634,184.273 258,190.5C 258.74,201.092 253.906,205.259 243.5,203C 236.172,210.148 229.838,217.981 224.5,226.5 Z"/></g>
<g><path style="opacity:1" fill="#454268" d="M 318.5,184.5 C 319.622,186.288 319.789,188.288 319,190.5C 317.204,188.598 317.037,186.598 318.5,184.5 Z"/></g>
<g><path style="opacity:1" fill="#131642" d="M 302.5,191.5 C 305.896,193.001 306.396,195.335 304,198.5C 300.939,205.621 297.606,212.621 294,219.5C 292.784,221.968 291.117,223.968 289,225.5C 288.5,225.167 288,224.833 287.5,224.5C 293.865,214.104 298.865,203.104 302.5,191.5 Z"/></g>
<g><path style="opacity:1" fill="#656283" d="M 286.5,200.5 C 284.456,199.969 282.789,198.802 281.5,197C 283.772,197.077 285.438,198.243 286.5,200.5 Z"/></g>
<g><path style="opacity:1" fill="#615f80" d="M 213.5,197.5 C 216.631,200.129 219.631,202.962 222.5,206C 221.833,206.667 221.167,206.667 220.5,206C 217.553,203.564 215.22,200.731 213.5,197.5 Z"/></g>
<g><path style="opacity:1" fill="#2f2d57" d="M 286.5,200.5 C 288.686,200.511 289.519,201.511 289,203.5C 287.955,202.627 287.122,201.627 286.5,200.5 Z"/></g>
<g><path style="opacity:1" fill="#1b1c47" d="M 152.5,211.5 C 154.465,211.948 154.798,212.948 153.5,214.5C 152.614,213.675 152.281,212.675 152.5,211.5 Z"/></g>
<g><path style="opacity:1" fill="#171a45" d="M 260.5,212.5 C 263.595,213.119 263.929,214.119 261.5,215.5C 260.5,215 259.5,214.5 258.5,214C 259.416,213.722 260.082,213.222 260.5,212.5 Z"/></g>
<g><path style="opacity:1" fill="#070f3b" d="M 325.5,261.5 C 315.211,278.957 300.544,291.124 281.5,298C 266.022,302.921 255.022,298.088 248.5,283.5C 246.048,276.744 244.548,269.744 244,262.5C 243,261.833 242,261.167 241,260.5C 240.667,252.833 240.333,245.167 240,237.5C 238.7,234.705 237.2,232.039 235.5,229.5C 238.493,223.705 241.993,218.371 246,213.5C 250.206,218.409 253.706,223.909 256.5,230C 255.126,232.583 253.626,235.083 252,237.5C 251.667,245.167 251.333,252.833 251,260.5C 249.369,262.059 248.536,264.059 248.5,266.5C 252.032,290.776 265.366,298.276 288.5,289C 302.617,281.217 313.784,270.383 322,256.5C 323.802,257.789 324.969,259.456 325.5,261.5 Z"/></g>
<g><path style="opacity:1" fill="#c0c0cd" d="M 244.5,220.5 C 248.84,220.386 251.007,222.386 251,226.5C 249.622,224.787 247.955,223.453 246,222.5C 237.954,227.891 237.454,227.225 244.5,220.5 Z"/></g>
<g><path style="opacity:1" fill="#010234" d="M 203.5,250.5 C 201.412,252.336 200.079,254.669 199.5,257.5C 197.692,258.317 196.192,257.65 195,255.5C 193.864,253.257 193.03,250.924 192.5,248.5C 192.5,241.167 192.5,233.833 192.5,226.5C 195.833,226.5 199.167,226.5 202.5,226.5C 202.23,234.555 202.563,242.555 203.5,250.5 Z"/></g>
<g><path style="opacity:1" fill="#020535" d="M 301.5,259.5 C 301.783,260.289 302.283,260.956 303,261.5C 303.333,254.5 303.667,247.5 304,240.5C 307.246,241.913 310.08,243.913 312.5,246.5C 313.452,252.075 313.786,257.741 313.5,263.5C 305.472,263.831 297.472,263.498 289.5,262.5C 285.515,258.015 281.349,253.682 277,249.5C 276.501,254.155 276.334,258.821 276.5,263.5C 273.102,263.82 269.768,263.487 266.5,262.5C 267.763,260.971 268.763,259.305 269.5,257.5C 270.222,257.082 270.722,256.416 271,255.5C 271.815,250.648 271.648,245.981 270.5,241.5C 269.713,239.896 268.38,239.229 266.5,239.5C 266.5,235.167 266.5,230.833 266.5,226.5C 275.173,226.334 283.84,226.5 292.5,227C 293.966,227.635 295.3,228.469 296.5,229.5C 297.099,232.887 298.432,235.887 300.5,238.5C 299.917,244.247 296.917,248.08 291.5,250C 294.703,253.371 298.036,256.538 301.5,259.5 Z"/></g>
<g><path style="opacity:1" fill="#050c39" d="M 336.5,230.5 C 337.412,231.738 337.579,233.072 337,234.5C 334.842,235.826 333.008,237.493 331.5,239.5C 332.355,240.293 333.189,239.96 334,238.5C 333.735,242.791 332.569,246.791 330.5,250.5C 329.524,249.185 328.524,247.852 327.5,246.5C 328.04,245.252 328.707,244.085 329.5,243C 327.965,243.661 326.298,243.994 324.5,244C 322.5,242 320.5,240 318.5,238C 322.667,233.833 326.833,229.667 331,225.5C 332.704,227.373 334.537,229.04 336.5,230.5 Z"/></g>
<g><path style="opacity:1" fill="#babac8" d="M 224.5,226.5 C 224.573,228.027 223.906,229.027 222.5,229.5C 222.427,227.973 223.094,226.973 224.5,226.5 Z"/></g>
<g><path style="opacity:1" fill="#070e3a" d="M 225.5,240.5 C 223.847,239.201 222.347,239.534 221,241.5C 220.267,246.885 220.433,252.218 221.5,257.5C 218.13,261.349 213.797,263.349 208.5,263.5C 206.275,263.695 204.609,262.861 203.5,261C 204.32,259.2 204.986,257.366 205.5,255.5C 206.338,255.158 206.672,254.492 206.5,253.5C 209.84,253.203 212.674,251.869 215,249.5C 215.05,244.917 215.883,240.584 217.5,236.5C 218.906,236.027 219.573,235.027 219.5,233.5C 221.262,232.738 222.262,231.404 222.5,229.5C 223.906,229.027 224.573,228.027 224.5,226.5C 225.117,226.389 225.617,226.056 226,225.5C 226.816,230.684 226.65,235.684 225.5,240.5 Z"/></g>
<g><path style="opacity:1" fill="#b6b5c4" d="M 222.5,229.5 C 222.262,231.404 221.262,232.738 219.5,233.5C 219.738,231.596 220.738,230.262 222.5,229.5 Z"/></g>
<g><path style="opacity:1" fill="#020636" d="M 223.5,256.5 C 222.555,251.595 222.221,246.595 222.5,241.5C 223.5,241.5 224.5,241.5 225.5,241.5C 225.34,243.199 225.506,244.866 226,246.5C 228.582,241.667 231.415,237 234.5,232.5C 236.499,234.493 237.999,236.827 239,239.5C 239.5,246.492 239.666,253.492 239.5,260.5C 235.138,260.756 230.805,260.923 226.5,261C 225.117,259.729 224.117,258.229 223.5,256.5 Z"/></g>
<g><path style="opacity:1" fill="#030736" d="M 269.5,241.5 C 269.779,246.595 269.445,251.595 268.5,256.5C 267.883,258.229 266.883,259.729 265.5,261C 261.797,261.579 258.131,261.412 254.5,260.5C 253.538,253.588 253.205,246.588 253.5,239.5C 254.051,236.733 255.384,234.4 257.5,232.5C 260.585,237 263.418,241.667 266,246.5C 266.333,244.833 266.667,243.167 267,241.5C 267.77,240.402 268.603,240.402 269.5,241.5 Z"/></g>
<g><path style="opacity:1" fill="#b9b9c7" d="M 219.5,233.5 C 219.573,235.027 218.906,236.027 217.5,236.5C 217.427,234.973 218.094,233.973 219.5,233.5 Z"/></g>
<g><path style="opacity:1" fill="#050c39" d="M 330.5,251.5 C 331.752,256.091 334.419,258.757 338.5,259.5C 337.167,260.5 337.167,261.5 338.5,262.5C 333.488,264.606 329.821,263.273 327.5,258.5C 322.558,254.897 317.892,250.897 313.5,246.5C 312.19,244.852 310.857,243.186 309.5,241.5C 309.709,240.914 310.043,240.414 310.5,240C 308.46,240.614 306.46,240.448 304.5,239.5C 302.32,237.152 300.32,234.652 298.5,232C 298.667,231.5 298.833,231 299,230.5C 299.423,231.956 300.256,232.456 301.5,232C 303.019,230.649 304.352,229.149 305.5,227.5C 302.919,225.829 303.252,225.329 306.5,226C 313.609,235.277 321.609,243.777 330.5,251.5 Z"/></g>
<g><path style="opacity:1" fill="#efeff2" d="M 169.5,236.5 C 177.478,236.486 180.811,240.486 179.5,248.5C 174.037,247.046 170.037,243.713 167.5,238.5C 168.243,237.818 168.909,237.151 169.5,236.5 Z"/></g>
<g><path style="opacity:1" fill="#e8e8ed" d="M 276.5,236.5 C 280.833,236.5 285.167,236.5 289.5,236.5C 289.5,237.5 289.5,238.5 289.5,239.5C 285.167,239.5 280.833,239.5 276.5,239.5C 276.5,238.5 276.5,237.5 276.5,236.5 Z"/></g>
<g><path style="opacity:1" fill="#ededf1" d="M 217.5,236.5 C 215.883,240.584 215.05,244.917 215,249.5C 212.674,251.869 209.84,253.203 206.5,253.5C 208.388,249.394 210.554,245.394 213,241.5C 214.049,239.382 215.549,237.716 217.5,236.5 Z"/></g>
<g><path style="opacity:1" fill="#a8a8b9" d="M 304.5,239.5 C 306.46,240.448 308.46,240.614 310.5,240C 310.043,240.414 309.709,240.914 309.5,241.5C 310.857,243.186 312.19,244.852 313.5,246.5C 313.167,246.5 312.833,246.5 312.5,246.5C 310.08,243.913 307.246,241.913 304,240.5C 303.667,247.5 303.333,254.5 303,261.5C 302.283,260.956 301.783,260.289 301.5,259.5C 301.85,252.605 302.85,245.938 304.5,239.5 Z"/></g>
<g><path style="opacity:1" fill="#c8c8d3" d="M 225.5,240.5 C 225.5,240.833 225.5,241.167 225.5,241.5C 224.5,241.5 223.5,241.5 222.5,241.5C 222.221,246.595 222.555,251.595 223.5,256.5C 222.833,256.833 222.167,257.167 221.5,257.5C 220.433,252.218 220.267,246.885 221,241.5C 222.347,239.534 223.847,239.201 225.5,240.5 Z"/></g>
<g><path style="opacity:1" fill="#c2c2ce" d="M 269.5,241.5 C 269.833,241.5 270.167,241.5 270.5,241.5C 271.648,245.981 271.815,250.648 271,255.5C 270.722,256.416 270.222,257.082 269.5,257.5C 269.5,256.833 269.167,256.5 268.5,256.5C 269.445,251.595 269.779,246.595 269.5,241.5 Z"/></g>
<g><path style="opacity:1" fill="#3f3f65" d="M 253.5,239.5 C 253.205,246.588 253.538,253.588 254.5,260.5C 253.179,257.402 252.512,253.902 252.5,250C 252.501,246.317 252.835,242.817 253.5,239.5 Z"/></g>
<g><path style="opacity:1" fill="#b4b4c3" d="M 203.5,250.5 C 202.921,253.331 201.588,255.664 199.5,257.5C 200.079,254.669 201.412,252.336 203.5,250.5 Z"/></g>
<g><path style="opacity:1" fill="#151843" d="M 261.5,262.5 C 262.552,262.351 263.552,262.517 264.5,263C 261.036,268.295 257.036,273.129 252.5,277.5C 251.432,275.813 251.599,274.146 253,272.5C 256.419,269.588 259.252,266.254 261.5,262.5 Z"/></g>
<g><path style="opacity:1" fill="#9e9eb1" d="M 172.5,268.5 C 176.373,271.186 179.206,274.519 181,278.5C 177.558,275.568 174.725,272.235 172.5,268.5 Z"/></g>
<g><path style="opacity:1" fill="#111541" d="M 220.5,272.5 C 227.685,272.898 228.352,275.398 222.5,280C 222.833,280.333 223.167,280.667 223.5,281C 222.275,282.563 220.775,283.73 219,284.5C 215.924,284.244 212.758,284.077 209.5,284C 209.043,283.586 208.709,283.086 208.5,282.5C 211.101,277.211 215.101,273.877 220.5,272.5 Z"/></g>
<g><path style="opacity:1" fill="#282751" d="M 327.5,271.5 C 329.368,272.786 329.534,274.119 328,275.5C 326.933,274.809 325.766,274.309 324.5,274C 326.119,273.764 327.119,272.931 327.5,271.5 Z"/></g>
<g><path style="opacity:1" fill="#d6d6df" d="M 221.5,275.5 C 221.56,274.957 221.893,274.624 222.5,274.5C 223.583,275.365 223.749,276.365 223,277.5C 222.722,276.584 222.222,275.918 221.5,275.5 Z"/></g>
<g><path style="opacity:1" fill="#3f3b63" d="M 264.5,274.5 C 265.598,275.601 265.765,276.934 265,278.5C 263.489,277.436 263.323,276.103 264.5,274.5 Z"/></g>
<g><path style="opacity:1" fill="#0f1340" d="M 278.5,279.5 C 282.161,279.35 283.161,280.85 281.5,284C 277.707,284.487 276.707,282.987 278.5,279.5 Z"/></g>
<g><path style="opacity:1" fill="#d4d4dd" d="M 211.5,279.5 C 212.267,280.172 212.934,281.005 213.5,282C 211.939,282.188 211.272,281.355 211.5,279.5 Z"/></g>
<g><path style="opacity:1" fill="#35335b" d="M 199.5,296.5 C 201.088,297.635 201.421,298.969 200.5,300.5C 199.571,299.311 199.238,297.978 199.5,296.5 Z"/></g>
<g><path style="opacity:1" fill="#0b123d" d="M 237.5,293.5 C 238.859,294.007 239.859,295.007 240.5,296.5C 244.108,295.407 247.775,295.24 251.5,296C 254.311,299.294 253.978,302.294 250.5,305C 247.534,305.895 244.867,305.395 242.5,303.5C 242.167,303.833 241.833,304.167 241.5,304.5C 243.07,306.947 245.07,308.947 247.5,310.5C 247.291,311.086 246.957,311.586 246.5,312C 240.359,311.817 237.192,314.65 237,320.5C 242.51,324.81 247.51,324.143 252,318.5C 253.166,315.172 254.332,311.839 255.5,308.5C 257.045,307.548 258.712,307.215 260.5,307.5C 259.099,311.376 258.099,315.376 257.5,319.5C 257.833,320.833 258.167,322.167 258.5,323.5C 263.622,319.508 266.289,314.174 266.5,307.5C 267.833,307.5 269.167,307.5 270.5,307.5C 270.602,312.092 269.602,316.425 267.5,320.5C 269.611,321.848 271.445,321.515 273,319.5C 274.4,312.766 278.4,308.766 285,307.5C 292.484,309.27 293.317,312.77 287.5,318C 284.854,318.497 282.187,318.664 279.5,318.5C 279.297,320.39 279.963,321.89 281.5,323C 288.234,324.549 292.734,322.049 295,315.5C 295.567,312.832 296.067,310.166 296.5,307.5C 298.167,307.5 299.833,307.5 301.5,307.5C 301.351,308.552 301.517,309.552 302,310.5C 304.571,307.653 307.571,306.987 311,308.5C 311.258,313.565 310.758,318.565 309.5,323.5C 313.043,323.128 315.21,321.128 316,317.5C 317.664,313.87 317.83,310.203 316.5,306.5C 317.5,306.5 318.5,306.5 319.5,306.5C 319.618,303.312 320.451,300.312 322,297.5C 323.356,296.62 324.856,296.286 326.5,296.5C 326.041,299.877 325.374,303.211 324.5,306.5C 325.833,306.5 327.167,306.5 328.5,306.5C 328.5,307.5 328.5,308.5 328.5,309.5C 326.533,309.261 324.699,309.594 323,310.5C 321.71,314.73 321.21,319.064 321.5,323.5C 324.785,323.731 327.285,322.397 329,319.5C 331.243,314.761 334.077,310.428 337.5,306.5C 339.071,305.691 340.738,305.357 342.5,305.5C 343.167,310.833 343.833,316.167 344.5,321.5C 345.552,321.649 346.552,321.483 347.5,321C 348.726,319.365 350.059,317.865 351.5,316.5C 351.833,316.833 352.167,317.167 352.5,317.5C 351.376,318.914 350.376,320.414 349.5,322C 346.489,322.743 343.822,324.076 341.5,326C 339.167,326.667 336.833,326.667 334.5,326C 332.485,324.445 332.152,322.611 333.5,320.5C 334.421,322.756 336.088,323.756 338.5,323.5C 340.052,318.698 339.719,314.031 337.5,309.5C 334.31,315.509 330.31,321.009 325.5,326C 320.615,327.718 317.449,326.218 316,321.5C 314.5,323 313,324.5 311.5,326C 309.5,326.667 307.5,326.667 305.5,326C 305.25,320.834 305.25,315.667 305.5,310.5C 299.668,314.165 297.001,319.498 297.5,326.5C 295.833,326.5 294.167,326.5 292.5,326.5C 292.649,325.448 292.483,324.448 292,323.5C 287.936,326.29 283.436,327.123 278.5,326C 276.185,324.891 274.685,323.057 274,320.5C 273.167,321.333 272.333,322.167 271.5,323C 266.322,323.076 261.488,324.243 257,326.5C 253.369,326.869 251.702,325.202 252,321.5C 247.011,326.577 241.178,327.744 234.5,325C 229.884,317.519 231.884,312.186 240.5,309C 239.333,308.5 238.5,307.667 238,306.5C 238.091,302.101 237.924,297.768 237.5,293.5 Z"/></g>
<g><path style="opacity:1" fill="#2e2d57" d="M 308.5,303.5 C 310.337,303.639 310.67,304.306 309.5,305.5C 308.702,305.043 308.369,304.376 308.5,303.5 Z"/></g>
<g><path style="opacity:1" fill="#dbdbe2" d="M 243.5,298.5 C 245.977,298.051 247.977,298.717 249.5,300.5C 247.104,303.166 244.771,303 242.5,300C 243.056,299.617 243.389,299.117 243.5,298.5 Z"/></g>
<g><path style="opacity:1" fill="#e5e5ea" d="M 283.5,310.5 C 284.5,310.5 285.5,310.5 286.5,310.5C 286.447,315.36 284.114,317.026 279.5,315.5C 280.857,313.814 282.19,312.148 283.5,310.5 Z"/></g>
</svg>
